<svg width="16" height="17" viewBox="0 0 16 17" fill="none" xmlns="http://www.w3.org/2000/svg">
<g id="facebook 1" clip-path="url(#clip0_95_2421)">
<path id="Vector" d="M16 8.54902C16 4.10302 12.418 0.499023 7.99999 0.499023C3.57999 0.500023 -0.00201416 4.10302 -0.00201416 8.55002C-0.00201416 12.567 2.92399 15.897 6.74799 16.501V10.876H4.71799V8.55002H6.74999V6.77502C6.74999 4.75802 7.94499 3.64402 9.77199 3.64402C10.648 3.64402 11.563 3.80102 11.563 3.80102V5.78102H10.554C9.56099 5.78102 9.25099 6.40202 9.25099 7.03902V8.54902H11.469L11.115 10.875H9.24999V16.5C13.074 15.896 16 12.566 16 8.54902Z" fill="#5C7161"/>
</g>
<defs>
<clipPath id="clip0_95_2421">
<rect width="16" height="16" fill="white" transform="translate(0 0.5)"/>
</clipPath>
</defs>
</svg>
