<svg width="16" height="17" viewBox="0 0 16 17" fill="none" xmlns="http://www.w3.org/2000/svg">
<g id="instagram 1" clip-path="url(#clip0_95_2425)">
<path id="Vector" d="M8 0.5C5.829 0.5 5.556 0.51 4.703 0.548C3.85 0.588 3.269 0.722 2.76 0.92C2.22609 1.12082 1.74249 1.43583 1.343 1.843C0.936076 2.2427 0.621107 2.72624 0.42 3.26C0.222 3.768 0.087 4.35 0.048 5.2C0.01 6.055 0 6.327 0 8.501C0 10.673 0.01 10.945 0.048 11.798C0.088 12.65 0.222 13.231 0.42 13.74C0.625 14.266 0.898 14.712 1.343 15.157C1.787 15.602 2.233 15.876 2.759 16.08C3.269 16.278 3.849 16.413 4.701 16.452C5.555 16.49 5.827 16.5 8 16.5C10.173 16.5 10.444 16.49 11.298 16.452C12.149 16.412 12.732 16.278 13.241 16.08C13.7746 15.8791 14.2578 15.5641 14.657 15.157C15.102 14.712 15.375 14.266 15.58 13.74C15.777 13.231 15.912 12.65 15.952 11.798C15.99 10.945 16 10.673 16 8.5C16 6.327 15.99 6.055 15.952 5.201C15.912 4.35 15.777 3.768 15.58 3.26C15.3789 2.72623 15.0639 2.24268 14.657 1.843C14.2576 1.43568 13.774 1.12065 13.24 0.92C12.73 0.722 12.148 0.587 11.297 0.548C10.443 0.51 10.172 0.5 7.998 0.5H8.001H8ZM7.283 1.942H8.001C10.137 1.942 10.39 1.949 11.233 1.988C12.013 2.023 12.437 2.154 12.719 2.263C13.092 2.408 13.359 2.582 13.639 2.862C13.919 3.142 14.092 3.408 14.237 3.782C14.347 4.063 14.477 4.487 14.512 5.267C14.551 6.11 14.559 6.363 14.559 8.498C14.559 10.633 14.551 10.887 14.512 11.73C14.477 12.51 14.346 12.933 14.237 13.215C14.1087 13.5624 13.904 13.8764 13.638 14.134C13.358 14.414 13.092 14.587 12.718 14.732C12.438 14.842 12.014 14.972 11.233 15.008C10.39 15.046 10.137 15.055 8.001 15.055C5.865 15.055 5.611 15.046 4.768 15.008C3.988 14.972 3.565 14.842 3.283 14.732C2.9355 14.6039 2.62113 14.3996 2.363 14.134C2.09675 13.876 1.89172 13.5617 1.763 13.214C1.654 12.933 1.523 12.509 1.488 11.729C1.45 10.886 1.442 10.633 1.442 8.496C1.442 6.36 1.45 6.108 1.488 5.265C1.524 4.485 1.654 4.061 1.764 3.779C1.909 3.406 2.083 3.139 2.363 2.859C2.643 2.579 2.909 2.406 3.283 2.261C3.565 2.151 3.988 2.021 4.768 1.985C5.506 1.951 5.792 1.941 7.283 1.94V1.942ZM12.271 3.27C12.1449 3.27 12.0201 3.29483 11.9036 3.34308C11.7872 3.39132 11.6813 3.46203 11.5922 3.55118C11.503 3.64032 11.4323 3.74615 11.3841 3.86262C11.3358 3.9791 11.311 4.10393 11.311 4.23C11.311 4.35607 11.3358 4.4809 11.3841 4.59738C11.4323 4.71385 11.503 4.81968 11.5922 4.90882C11.6813 4.99797 11.7872 5.06868 11.9036 5.11692C12.0201 5.16517 12.1449 5.19 12.271 5.19C12.5256 5.19 12.7698 5.08886 12.9498 4.90882C13.1299 4.72879 13.231 4.48461 13.231 4.23C13.231 3.97539 13.1299 3.73121 12.9498 3.55118C12.7698 3.37114 12.5256 3.27 12.271 3.27ZM8.001 4.392C7.45607 4.3835 6.91489 4.48349 6.40898 4.68614C5.90306 4.8888 5.44251 5.19007 5.05415 5.57242C4.66579 5.95478 4.35736 6.41057 4.14684 6.91326C3.93632 7.41595 3.8279 7.9555 3.8279 8.5005C3.8279 9.0455 3.93632 9.58505 4.14684 10.0877C4.35736 10.5904 4.66579 11.0462 5.05415 11.4286C5.44251 11.8109 5.90306 12.1122 6.40898 12.3149C6.91489 12.5175 7.45607 12.6175 8.001 12.609C9.07954 12.5922 10.1082 12.1519 10.865 11.3833C11.6217 10.6146 12.0459 9.57917 12.0459 8.5005C12.0459 7.42183 11.6217 6.38641 10.865 5.61775C10.1082 4.84909 9.07954 4.40883 8.001 4.392ZM8.001 5.833C8.70833 5.833 9.38669 6.11399 9.88685 6.61415C10.387 7.11431 10.668 7.79267 10.668 8.5C10.668 9.20733 10.387 9.88569 9.88685 10.3859C9.38669 10.886 8.70833 11.167 8.001 11.167C7.29367 11.167 6.61531 10.886 6.11515 10.3859C5.61499 9.88569 5.334 9.20733 5.334 8.5C5.334 7.79267 5.61499 7.11431 6.11515 6.61415C6.61531 6.11399 7.29367 5.833 8.001 5.833Z" fill="#5C7161"/>
</g>
<defs>
<clipPath id="clip0_95_2425">
<rect width="16" height="16" fill="white" transform="translate(0 0.5)"/>
</clipPath>
</defs>
</svg>
