<svg width="16" height="17" viewBox="0 0 16 17" fill="none" xmlns="http://www.w3.org/2000/svg">
<g id="linkedin 2" clip-path="url(#clip0_95_2417)">
<path id="Vector" d="M0 1.646C0 1.013 0.526 0.5 1.175 0.5H14.825C15.474 0.5 16 1.013 16 1.646V15.354C16 15.987 15.474 16.5 14.825 16.5H1.175C0.526 16.5 0 15.987 0 15.354V1.646ZM4.943 13.894V6.669H2.542V13.894H4.943ZM3.743 5.682C4.58 5.682 5.101 5.128 5.101 4.434C5.086 3.725 4.581 3.186 3.759 3.186C2.937 3.186 2.4 3.726 2.4 4.434C2.4 5.128 2.921 5.682 3.727 5.682H3.743ZM8.651 13.894V9.859C8.651 9.643 8.667 9.427 8.731 9.273C8.904 8.842 9.299 8.395 9.963 8.395C10.832 8.395 11.179 9.057 11.179 10.029V13.894H13.58V9.75C13.58 7.53 12.396 6.498 10.816 6.498C9.542 6.498 8.971 7.198 8.651 7.691V7.716H8.635C8.64031 7.70765 8.64564 7.69932 8.651 7.691V6.669H6.251C6.281 7.347 6.251 13.894 6.251 13.894H8.651Z" fill="#5C7161"/>
</g>
<defs>
<clipPath id="clip0_95_2417">
<rect width="16" height="16" fill="white" transform="translate(0 0.5)"/>
</clipPath>
</defs>
</svg>
