<svg width="16" height="17" viewBox="0 0 16 17" fill="none" xmlns="http://www.w3.org/2000/svg">
<g id="telephone-fill 1" clip-path="url(#clip0_95_2433)">
<path id="Vector" fill-rule="evenodd" clip-rule="evenodd" d="M1.88498 1.01115C2.05996 0.836436 2.27006 0.700905 2.50138 0.613537C2.7327 0.526169 2.97994 0.488958 3.22672 0.50437C3.47351 0.519782 3.7142 0.587465 3.93285 0.702935C4.15149 0.818404 4.34311 0.979023 4.49498 1.17415L6.28998 3.48015C6.61898 3.90315 6.73498 4.45415 6.60498 4.97415L6.05798 7.16415C6.0297 7.27758 6.03123 7.39639 6.06242 7.50906C6.09361 7.62172 6.1534 7.72441 6.23598 7.80715L8.69298 10.2641C8.77582 10.3469 8.87868 10.4068 8.99153 10.438C9.10439 10.4692 9.22341 10.4706 9.33698 10.4421L11.526 9.89515C11.7826 9.83099 12.0504 9.826 12.3093 9.88057C12.5681 9.93514 12.8111 10.0478 13.02 10.2101L15.326 12.0041C16.155 12.6491 16.231 13.8741 15.489 14.6151L14.455 15.6491C13.715 16.3891 12.609 16.7141 11.578 16.3511C8.93917 15.4227 6.54325 13.912 4.56798 11.9311C2.58727 9.95616 1.07659 7.56061 0.147983 4.92215C-0.214017 3.89215 0.110983 2.78515 0.850983 2.04515L1.88498 1.01115Z" fill="#5C7161"/>
</g>
<defs>
<clipPath id="clip0_95_2433">
<rect width="16" height="16" fill="white" transform="translate(0 0.5)"/>
</clipPath>
</defs>
</svg>
