<svg width="16" height="17" viewBox="0 0 16 17" fill="none" xmlns="http://www.w3.org/2000/svg">
<g id="twitter 1">
<path id="Vector" d="M5.026 15.5002C11.064 15.5002 14.367 10.4972 14.367 6.1662C14.367 6.0262 14.367 5.8842 14.361 5.7442C15.0041 5.27869 15.5591 4.70236 16 4.0422C15.3993 4.30706 14.7628 4.48161 14.111 4.5602C14.7975 4.14984 15.3117 3.50417 15.558 2.7432C14.913 3.12533 14.207 3.39358 13.471 3.5362C12.9762 3.00923 12.3214 2.66012 11.6081 2.54296C10.8948 2.4258 10.1627 2.54713 9.52534 2.88814C8.88796 3.22916 8.38081 3.77083 8.08245 4.42927C7.78409 5.0877 7.71118 5.82614 7.875 6.53021C6.56974 6.46476 5.29282 6.12567 4.12704 5.53495C2.96127 4.94422 1.93268 4.11505 1.108 3.1012C0.68934 3.82429 0.561574 4.67961 0.750646 5.49347C0.939718 6.30734 1.43145 7.01873 2.126 7.4832C1.60554 7.46552 1.09652 7.32576 0.64 7.0752V7.1202C0.640897 7.87769 0.903307 8.61163 1.38287 9.19796C1.86244 9.7843 2.52975 10.1871 3.272 10.3382C2.99026 10.4158 2.69923 10.4545 2.407 10.4532C2.20098 10.4538 1.99538 10.4347 1.793 10.3962C2.00279 11.0483 2.41127 11.6184 2.96125 12.0267C3.51122 12.435 4.17513 12.6611 4.86 12.6732C3.69656 13.587 2.2594 14.0826 0.78 14.0802C0.519321 14.0813 0.258823 14.0663 0 14.0352C1.50151 14.9925 3.2453 15.5008 5.026 15.5002Z" fill="#5C7161"/>
</g>
</svg>
